<?xml version="1.0" encoding="UTF-8"?>
<svg version="1.1" xmlns="http://www.w3.org/2000/svg" width="3840" height="2160">
<path d="M0 0 C62.37 0 124.74 0 189 0 C190.12491542 10.12423876 190.12491542 10.12423876 190.11172771 14.88531017 C190.11129211 15.9644641 190.11085651 17.04361803 190.11040771 18.15547359 C190.10488549 19.30985868 190.09936327 20.46424377 190.09367371 21.65361023 C190.09193999 22.89288902 190.09020628 24.13216782 190.08842003 25.40900052 C190.08411523 28.09751501 190.07803372 30.78595509 190.0689131 33.47445071 C190.0543628 37.80872871 190.0471456 42.14300034 190.04130077 46.47729778 C190.03921741 47.97631009 190.0371248 49.47532238 190.03502315 50.97433466 C190.03397758 51.72432611 190.032932 52.47431756 190.03185474 53.24703603 C190.02838432 55.55527474 190.02425439 57.86351142 190.01993853 60.1717487 C189.99221172 75.35875975 190.01110223 90.54556782 190.04017009 105.73256232 C190.04421916 107.88222567 190.04803241 110.03188932 190.05176485 112.18155324 C190.09828127 138.9605734 190.16366845 165.73955104 190.23571491 192.51851368 C190.24467505 195.86593933 190.25358532 199.21336511 190.26245117 202.56079102 C190.2657567 203.80767457 190.2657567 203.80767457 190.269129 205.0797477 C190.30485086 218.67413233 190.32955167 232.26851655 190.35034702 245.86293129 C190.37216554 259.97671671 190.40521532 274.09044352 190.44870156 288.20417899 C190.47495719 296.83396959 190.4928429 305.46368789 190.49934604 314.09351637 C190.50463253 319.98236144 190.52095712 325.87111402 190.54566566 331.75990931 C190.5595345 335.13904337 190.56725376 338.51787392 190.56500816 341.89705658 C190.55660152 360.39149303 191.25557047 378.60305058 196.625 396.4375 C196.87733398 397.29182617 197.12966797 398.14615234 197.38964844 399.02636719 C210.74972239 442.50617981 240.21634775 477.62877674 279.9909668 499.48120117 C292.15243477 505.8877933 305.075612 510.47340095 318.375 513.875 C319.12185059 514.06618408 319.86870117 514.25736816 320.63818359 514.4543457 C333.02080721 517.40086977 345.48845167 518.36868338 358.1875 518.3125 C358.85875916 518.31034485 359.53001831 518.3081897 360.22161865 518.30596924 C403.86632108 518.08258728 444.50793037 501.1614188 476 471 C476.7321875 470.319375 477.464375 469.63875 478.21875 468.9375 C508.19391397 440.22889225 525.40487456 398.02604175 526.42498145 356.83847123 C526.57453728 348.95538332 526.56544253 341.07130369 526.54880548 333.18714786 C526.54379164 328.70078285 526.56202975 324.21449848 526.57722473 319.72816467 C526.6003739 311.98394806 526.60929257 304.23982466 526.60811615 296.49557495 C526.60643655 285.29917085 526.62688623 274.10288987 526.65247145 262.90651882 C526.69340818 244.73439745 526.71682852 226.56229846 526.72900391 208.39013672 C526.74085837 190.75372161 526.76115018 173.11734873 526.79248047 155.48095703 C526.79442598 154.37996536 526.7963715 153.27897369 526.79837596 152.14461863 C526.81365983 143.53216929 526.82942782 134.91972086 526.8453486 126.30727267 C526.92305458 84.20485535 526.95859314 42.10249892 527 0 C589.7 0 652.4 0 717 0 C717.64111693 5.77005239 718.14573225 11.17450209 718.12584114 16.92295551 C718.12729458 17.67033894 718.12874802 18.41772236 718.13024551 19.18775377 C718.13387677 21.67672924 718.13043226 24.16564235 718.12698364 26.65461731 C718.12813671 28.46438064 718.12972549 30.27414374 718.13171089 32.08390635 C718.13588125 37.0475601 718.13382356 42.01119458 718.13072467 46.97484839 C718.12846037 52.33611342 718.13195606 57.69737515 718.13470459 63.05863953 C718.1391563 73.57658894 718.1381867 84.09453122 718.13529195 94.61248092 C718.13302755 103.20047806 718.13272991 111.78847321 718.13381577 120.37647057 C718.13404561 122.21509588 718.13404561 122.21509588 718.13428011 124.09086513 C718.13459989 126.58234575 718.1349241 129.07382637 718.1352527 131.56530698 C718.13802639 154.29870113 718.1351485 177.0320916 718.1299101 199.76548514 C718.12520402 220.34373988 718.12557337 240.92198903 718.13037109 261.50024414 C718.1357816 284.7169896 718.13779401 307.93373158 718.13475883 331.15047759 C718.13444038 333.65294278 718.134126 336.15540796 718.13381577 338.65787315 C718.13366149 339.88837376 718.13350721 341.11887437 718.13334826 342.38666287 C718.13249946 350.89158872 718.13393077 359.39651227 718.13629532 367.90143776 C718.14757328 412.51416165 718.14259193 457.12371506 717.54638672 501.7331543 C717.53129133 502.88222815 717.53129133 502.88222815 717.51589099 504.05451562 C716.55473815 576.86099021 713.79592918 650.03118922 702 722 C701.87945251 722.73895508 701.75890503 723.47791016 701.63470459 724.23925781 C688.34406528 805.2406375 662.79389568 890.11743432 606.03515625 951.78125 C604.2045558 953.77699099 602.44163517 955.81230611 600.6875 957.875 C593.45333877 966.16904997 585.48645503 973.99576828 577 981 C576.50757813 981.4115332 576.01515625 981.82306641 575.5078125 982.24707031 C560.07947779 995.09496172 543.52973833 1006.22893421 526 1016 C525.28473145 1016.40283203 524.56946289 1016.80566406 523.83251953 1017.22070312 C480.46299771 1041.47611484 431.92042577 1054.2164014 383 1061 C381.70787598 1061.17934082 380.41575195 1061.35868164 379.08447266 1061.54345703 C288.67521672 1073.39018712 191.93884232 1054.03339586 112.21777344 1010.21630859 C110.02000328 1009.01097053 107.81201423 1007.82642018 105.6015625 1006.64453125 C79.88220361 992.7691266 54.95675633 976.34285677 33 957 C36.87371376 951.11216114 40.85719111 945.32638047 45 939.625 C45.5554248 938.85824951 46.11084961 938.09149902 46.68310547 937.30151367 C52.53491647 929.23707354 58.45236433 921.22106388 64.37158203 913.20605469 C70.73293355 904.58818777 77.05085098 895.94059159 83.3125 887.25 C89.54927743 878.59635548 95.86844025 870.00514515 102.20751953 861.42626953 C105.26610942 857.28621691 108.32089415 853.14336115 111.375 849 C112.24910522 847.81422363 112.24910522 847.81422363 113.14086914 846.60449219 C117.45118304 840.75358868 121.73980533 834.88753612 126 829 C130.52496171 830.31391481 133.93044635 832.09884141 137.8125 834.75 C202.33660223 877.49811092 283.1278846 906.12283439 360.8125 890.75 C396.60800158 883.25424227 428.82696051 867.944952 455 842 C455.33 841.34 455.66 840.68 456 840 C456.66 840 457.32 840 458 840 C458.25007813 839.42636719 458.50015625 838.85273437 458.7578125 838.26171875 C460.17346364 835.68416526 461.83122279 833.92739766 463.875 831.8125 C474.97969815 819.63832851 483.48578109 805.60057082 491 791 C491.3825293 790.26088379 491.76505859 789.52176758 492.15917969 788.76025391 C503.31598309 766.93648118 510.43525749 743.80430894 516 720 C516.20463867 719.13665039 516.40927734 718.27330078 516.62011719 717.38378906 C519.21071571 706.23924218 520.75907818 694.96663982 522.1875 683.625 C522.31492081 682.61610214 522.31492081 682.61610214 522.44491577 681.58682251 C523.93673832 669.63817351 525.17620698 657.67793951 525.0625 645.625 C525.04896484 643.72621094 525.04896484 643.72621094 525.03515625 641.7890625 C525.02355469 640.86867188 525.01195312 639.94828125 525 639 C524.34 639 523.68 639 523 639 C522.67 639.99 522.34 640.98 522 642 C485.94722014 676.23263952 433.92307177 693.73386788 386 702 C385.25298828 702.13277344 384.50597656 702.26554687 383.73632812 702.40234375 C351.28190784 707.95170668 315.02420637 703.43321508 283 697 C282.05302246 696.81131348 281.10604492 696.62262695 280.13037109 696.42822266 C253.39845941 690.93240448 226.4534832 682.15723857 202 670 C200.62816324 669.33868275 199.25577274 668.67851288 197.8828125 668.01953125 C167.95267626 653.50520729 140.79817278 635.19112534 116 613 C115.48679199 612.54318848 114.97358398 612.08637695 114.44482422 611.61572266 C54.57076297 558.14793957 16.73213855 485.00862737 3.6875 406.0625 C3.54014404 405.17868652 3.39278809 404.29487305 3.2409668 403.38427734 C-0.13571482 381.31221321 -0.28617767 359.22972133 -0.23213124 336.96504152 C-0.2233779 332.42893486 -0.22642517 327.89283272 -0.22793579 323.35671997 C-0.22897724 315.5246397 -0.22277882 307.69259312 -0.21146011 299.86052132 C-0.19510657 288.53709507 -0.1899871 277.21368488 -0.18748413 265.89024811 C-0.18312237 247.51235347 -0.16985478 229.13447673 -0.15087891 210.7565918 C-0.13248059 192.9193531 -0.11836647 175.08211932 -0.10986328 157.24487305 C-0.10932729 156.13154337 -0.10879129 155.01821368 -0.10823905 153.87114674 C-0.10407946 145.16232547 -0.10016587 136.45350409 -0.09632993 127.74468267 C-0.07751136 85.16310534 -0.03726328 42.5815729 0 0 Z " fill="#000000" transform="translate(849,729)"/>
<path d="M0 0 C62.7 0 125.4 0 190 0 C190.04026156 83.66910346 190.04026156 83.66910346 190.05130005 109.56588745 C190.05169472 110.48947278 190.05208938 111.41305812 190.05249601 112.36463088 C190.06575261 143.47136826 190.07625127 174.57810593 190.08468628 205.68484497 C190.08496239 206.70049573 190.08523851 207.71614649 190.08552299 208.76257454 C190.09150959 230.83841054 190.09704985 252.91424663 190.10213066 274.99008285 C190.10462521 285.8169563 190.10721833 296.64382972 190.10986328 307.47070312 C190.1101248 308.54807466 190.11038632 309.62544619 190.11065576 310.73546534 C190.11916983 345.62054276 190.13418599 380.50561368 190.15259444 415.39068716 C190.17148597 451.25659462 190.18377699 487.12249849 190.18782998 522.98841084 C190.18840624 528.06080748 190.18905751 533.13320411 190.18975449 538.20560074 C190.18988933 539.20386554 190.19002418 540.20213034 190.19016311 541.23064558 C190.19252133 557.26327783 190.20178334 573.29589891 190.21366407 589.32852661 C190.22547598 605.46892776 190.22992662 621.60931792 190.22700275 637.74972324 C190.22548816 647.32460892 190.22947802 656.89945417 190.24159509 666.47433251 C190.249155 672.88986569 190.24928556 679.30537273 190.24366363 685.72090779 C190.24067547 689.36386625 190.24064188 693.00674886 190.24976636 696.64969884 C190.30142746 718.55815224 189.78512767 740.52693922 186.1875 762.1875 C185.92984863 763.78271484 185.92984863 763.78271484 185.66699219 765.41015625 C180.02843999 799.38268541 169.73327002 831.89108237 155 863 C154.40614502 864.25562744 154.40614502 864.25562744 153.80029297 865.53662109 C134.40441817 906.19832393 105.67975937 945.4985368 71.390625 974.9453125 C69.59628661 976.4875053 67.81757791 978.04791375 66.046875 979.6171875 C45.39583821 997.81057515 22.34406211 1013.20753174 -2 1026 C-2.84256348 1026.44585449 -3.68512695 1026.89170898 -4.55322266 1027.35107422 C-18.33844594 1034.59751082 -32.36225425 1040.69304902 -47 1046 C-47.94536621 1046.34659668 -48.89073242 1046.69319336 -49.86474609 1047.05029297 C-74.48802662 1055.98247294 -100.06136102 1061.55379593 -126 1065 C-126.82580566 1065.11714355 -127.65161133 1065.23428711 -128.50244141 1065.35498047 C-158.58927633 1069.48815865 -191.03582123 1068.47780773 -221 1064 C-222.15806152 1063.82839355 -223.31612305 1063.65678711 -224.50927734 1063.47998047 C-241.66770345 1060.85016554 -258.37114249 1056.96278106 -275 1052 C-275.90766113 1051.72961914 -276.81532227 1051.45923828 -277.75048828 1051.18066406 C-325.5906889 1036.65885693 -369.63478144 1011.03387452 -407 978 C-407.90492188 977.20722656 -408.80984375 976.41445312 -409.7421875 975.59765625 C-415.7291683 970.29143806 -421.38719594 964.69770362 -427 959 C-427.79148437 958.21496094 -428.58296875 957.42992187 -429.3984375 956.62109375 C-437.76567974 948.19103437 -445.83308578 939.47964185 -453 930 C-453.49048828 929.36030273 -453.98097656 928.72060547 -454.48632812 928.06152344 C-496.05618178 873.70660853 -522.20623622 808.31251715 -528 740 C-528.16628906 738.25589844 -528.16628906 738.25589844 -528.3359375 736.4765625 C-535.71850149 644.49380574 -506.67239208 552.14792733 -447 479 C-446.32807617 478.17145508 -446.32807617 478.17145508 -445.64257812 477.32617188 C-438.23937031 468.26380542 -430.12073072 459.91435557 -421.875 451.625 C-421.11746933 450.85956879 -421.11746933 450.85956879 -420.34463501 450.07867432 C-413.57651883 443.25602197 -406.52324042 436.99127828 -399 431 C-397.75199309 429.95197046 -396.5079526 428.89918304 -395.26953125 427.83984375 C-334.20953329 376.24637649 -252.36960294 348.71940725 -172.89916992 348.88647461 C-170.97522388 348.88678152 -169.05127773 348.88664648 -167.12733173 348.88610935 C-162.01058046 348.88588511 -156.89385294 348.8916488 -151.77710724 348.89871979 C-146.96228466 348.904447 -142.14746764 348.90468466 -137.3326416 348.90539551 C-123.28425797 348.91062694 -109.23587868 348.9245882 -95.1875 348.9375 C-63.775625 348.958125 -32.36375 348.97875 0 349 C0 233.83 0 118.66 0 0 Z M-205 541 C-205.82200583 541.17923319 -206.64401165 541.35846638 -207.49092674 541.54313087 C-250.08054076 551.03601215 -288.92904764 577.86565168 -312.6875 614.5 C-313.79985178 616.3283787 -314.90380734 618.16188771 -316 620 C-316.62261719 620.98484375 -317.24523437 621.9696875 -317.88671875 622.984375 C-328.1696559 639.87344269 -334.24909089 658.67574875 -338 678 C-338.24492187 679.18464844 -338.48984375 680.36929688 -338.7421875 681.58984375 C-345.82228413 723.1490411 -335.5003003 768.09218382 -312.0390625 802.91015625 C-310.08425832 805.65692656 -308.065592 808.33574313 -306 811 C-305.35933594 811.845625 -304.71867187 812.69125 -304.05859375 813.5625 C-290.43591304 830.93335662 -274.11073158 845.00021845 -255 856 C-254.43087891 856.33241699 -253.86175781 856.66483398 -253.27539062 857.00732422 C-239.87445021 864.77496144 -225.67754946 869.99258064 -210.6875 873.8125 C-209.54341675 874.10483521 -209.54341675 874.10483521 -208.3762207 874.40307617 C-195.73634979 877.444742 -183.25367601 878.38004211 -170.3125 878.3125 C-169.5661026 878.31034485 -168.8197052 878.3081897 -168.0506897 878.30596924 C-156.47794253 878.25246401 -145.28066773 877.75156327 -134 875 C-133.17322754 874.80132324 -132.34645508 874.60264648 -131.49462891 874.39794922 C-99.94216861 866.58155759 -73.34498563 851.4867141 -50 829 C-49.2471875 828.31035156 -48.494375 827.62070313 -47.71875 826.91015625 C-18.71523503 799.53546186 -1.03834374 757.23034054 0.17982864 717.6081543 C0.26745563 712.8363471 0.24820629 708.0653045 0.22705078 703.29296875 C0.22648508 701.47782396 0.22680633 699.66267871 0.22793579 697.84753418 C0.22850409 692.97256285 0.21683551 688.09769215 0.20278788 683.22274399 C0.19019232 678.10854365 0.18910312 672.99434041 0.18673706 667.88012695 C0.18054802 658.21916194 0.16417245 648.55824278 0.14403808 638.89729786 C0.12159841 627.88867839 0.11066546 616.8800566 0.10064721 605.87141991 C0.07980363 583.24758796 0.04467832 560.62379656 0 538 C-23.62791305 537.9296608 -47.25581021 537.87689049 -70.88380718 537.84456348 C-81.85673732 537.82914901 -92.82960208 537.80816418 -103.80249023 537.77368164 C-113.3756866 537.74361222 -122.94883558 537.72438571 -132.52207786 537.71773452 C-137.58265132 537.71385173 -142.64308932 537.70484216 -147.703619 537.68280983 C-176.51682798 537.23815051 -176.51682798 537.23815051 -205 541 Z " fill="#000000" transform="translate(561,366)"/>
<path d="M0 0 C0.89507263 -0.00100708 1.79014526 -0.00201416 2.71234131 -0.00305176 C19.14160235 0.00935457 35.21075221 0.97890295 51.5 3.25 C52.50546875 3.38921875 53.5109375 3.5284375 54.546875 3.671875 C89.21703208 8.67772656 122.82367193 19.41011317 154.5 34.25 C155.35883789 34.65186523 156.21767578 35.05373047 157.10253906 35.46777344 C182.79074074 47.62143653 206.56529165 63.20829619 228.5 81.25 C229.03737793 81.68441406 229.57475586 82.11882812 230.12841797 82.56640625 C239.59378549 90.2575429 248.23899349 98.78069062 256.875 107.375 C257.43312378 107.92785675 257.99124756 108.4807135 258.56628418 109.05032349 C265.68463104 116.11669536 272.27048352 123.37205762 278.5 131.25 C279.47620359 132.42413222 280.45608816 133.59522478 281.44140625 134.76171875 C325.75633215 188.0625423 351.92381882 256.61035482 358.5 325.25 C358.5942627 326.19818604 358.68852539 327.14637207 358.78564453 328.12329102 C359.676358 338.13545213 359.74335703 348.14310094 359.75 358.1875 C359.75101212 359.57186249 359.75101212 359.57186249 359.75204468 360.98419189 C359.71142499 396.197284 354.57670264 430.4858564 344.5 464.25 C344.22961914 465.15766113 343.95923828 466.06532227 343.68066406 467.00048828 C330.33441037 510.96798133 307.63378913 551.82977726 278.5 587.25 C278.06558594 587.78737793 277.63117187 588.32475586 277.18359375 588.87841797 C269.4924571 598.34378549 260.96930938 606.98899349 252.375 615.625 C251.82214325 616.18312378 251.2692865 616.74124756 250.69967651 617.31628418 C243.63358598 624.43434762 236.38033491 631.02391568 228.5 637.25 C227.2911117 638.25009983 226.08495234 639.25351719 224.8828125 640.26171875 C214.62679193 648.73657734 203.69336527 656.07563769 192.5 663.25 C191.8512793 663.66846191 191.20255859 664.08692383 190.53417969 664.51806641 C146.21777415 692.87024266 95.47739327 709.58516355 43.5 716.25 C42.59910645 716.36859375 41.69821289 716.4871875 40.77001953 716.609375 C-51.95706332 728.26748532 -146.85352023 699.25451748 -220.25390625 642.58203125 C-233.34858482 632.36730214 -245.60024866 621.20295408 -257.375 609.5 C-257.88611328 608.99355957 -258.39722656 608.48711914 -258.92382812 607.96533203 C-273.01941043 593.81033255 -285.33855743 577.77538094 -296.5 561.25 C-296.95971191 560.57533691 -297.41942383 559.90067383 -297.89306641 559.20556641 C-351.20374497 480.59169951 -369.27739054 382.81686678 -351.87548828 289.91601562 C-340.68977807 232.72415699 -315.77888381 178.17760119 -278.5 133.25 C-277.66855469 132.24453125 -276.83710938 131.2390625 -275.98046875 130.203125 C-263.3029704 114.98598626 -249.79594517 99.88914525 -234.5 87.25 C-233.97132324 86.8075293 -233.44264648 86.36505859 -232.89794922 85.90917969 C-167.18552219 31.00390039 -85.86687254 0.06760701 0 0 Z M-118.5 236.25 C-123.5 241.25 -123.5 241.25 -125.19921875 242.80859375 C-150.20459955 266.39379065 -164.43394061 301.86503308 -169.5 335.25 C-169.68433594 336.405 -169.86867188 337.56 -170.05859375 338.75 C-175.35395051 382.92232272 -162.93343693 428.41419647 -135.80029297 463.62255859 C-132.40941543 467.86656717 -128.7416147 471.8349626 -124.96386719 475.73486328 C-123.4534642 477.29816564 -121.96556661 478.88117133 -120.4765625 480.46484375 C-91.81054842 510.50933283 -50.30615799 528.65682683 -8.82397461 530.35986328 C40.80497417 531.41457261 85.54855668 514.52892785 121.5390625 480.21484375 C125.94550688 475.88864452 129.73702979 471.13644693 133.5 466.25 C134.69882813 464.79207031 134.69882813 464.79207031 135.921875 463.3046875 C156.67529401 437.83237485 170.36670602 402.34145282 170.73828125 369.40234375 C170.74821106 368.67708496 170.75814087 367.95182617 170.76837158 367.20458984 C171.22768761 324.88431744 160.94436408 285.44767477 133.5 252.25 C133.005 251.63833984 132.51 251.02667969 132 250.39648438 C103.68618274 215.48348314 62.80469556 193.88329425 18.2578125 188.75 C-30.34663874 184.00810232 -84.60238933 199.73743079 -118.5 236.25 Z " fill="#000000" transform="translate(2655.5,714.75)"/>
<path d="M0 0 C4.53375666 -0.17492189 9.03818478 -0.09940067 13.56787109 0.109375 C14.60105469 0.15578125 15.63423828 0.2021875 16.69873047 0.25 C83.92778949 3.51318654 151.18299263 22.89013365 206.56787109 62.109375 C207.23882813 62.57956055 207.90978516 63.04974609 208.60107422 63.53417969 C221.57598939 72.64386422 233.59055736 82.4046007 245.31396484 93.07421875 C247.32886148 94.89356216 249.3768199 96.66127696 251.44287109 98.421875 C259.76017544 105.67631895 267.45599549 113.67935004 274.56787109 122.109375 C275.35162109 123.00398437 276.13537109 123.89859375 276.94287109 124.8203125 C306.91618053 159.2330807 329.75733803 200.02231704 344.56787109 243.109375 C344.91446777 244.11242676 345.26106445 245.11547852 345.61816406 246.14892578 C358.16929091 283.07128719 363.77507852 321.81038452 363.68812561 360.74476624 C363.68856319 362.23611689 363.68944151 363.72746747 363.69071478 365.21881765 C363.69292312 369.26218225 363.68898944 373.30551974 363.68393672 377.34888089 C363.67957904 381.72967273 363.68108238 386.11046331 363.68183899 390.49125671 C363.68236088 398.06315021 363.67924921 405.63503503 363.67360115 413.20692635 C363.66544057 424.15432904 363.66286628 435.10172759 363.66161316 446.049133 C363.65942978 463.81474013 363.6527891 481.58034264 363.64331055 499.34594727 C363.63411793 516.59366839 363.62705764 533.84138825 363.62280273 551.08911133 C363.62253474 552.16482145 363.62226674 553.24053158 363.62199062 554.34883898 C363.61991094 562.76280894 363.61795411 571.17677892 363.61603606 579.59074891 C363.60661888 620.76362851 363.58649667 661.93649654 363.56787109 703.109375 C300.86787109 703.109375 238.16787109 703.109375 173.56787109 703.109375 C173.53048828 677.50988281 173.49310547 651.91039062 173.45458984 625.53515625 C173.4243134 609.31575008 173.39330712 593.09635024 173.35888672 576.87695312 C173.34083845 568.35424851 173.32297476 559.83154354 173.30541992 551.30883789 C173.30321223 550.24075789 173.30100454 549.17267789 173.29872996 548.07223183 C173.26342689 530.86257799 173.23853081 513.6529242 173.21752407 496.44324765 C173.19570815 478.76181339 173.16260308 461.08042583 173.11916953 443.39903134 C173.0927523 432.50182932 173.07498396 421.60468541 173.06852505 410.70745298 C173.06324063 403.21963751 173.0469222 395.73189496 173.02220543 388.24411867 C173.00829427 383.93373946 172.99898024 379.62349048 173.00286293 375.31308746 C173.03244855 344.04339301 173.03244855 344.04339301 166.88037109 313.484375 C166.49909058 312.20300659 166.49909058 312.20300659 166.11010742 310.89575195 C158.06248007 284.753609 144.48864009 261.84993468 125.56787109 242.109375 C124.75189453 241.23023438 123.93591797 240.35109375 123.09521484 239.4453125 C94.47399429 209.51737938 51.64028842 192.34261991 10.56787109 191.109375 C9.72482422 191.06941406 8.88177734 191.02945313 8.01318359 190.98828125 C-37.14947782 189.79238523 -79.86892634 207.89219459 -112.62109375 238.37304688 C-135.99407478 260.72182656 -151.88301716 289.78090338 -159.24462891 321.171875 C-159.43968018 321.9966333 -159.63473145 322.8213916 -159.83569336 323.67114258 C-164.04796375 342.97103341 -163.74177705 362.49512609 -163.74880314 382.12677455 C-163.75253534 386.4578068 -163.76770919 390.78880193 -163.78141785 395.11981201 C-163.80357585 402.60382819 -163.81865763 410.08783095 -163.82878494 417.57187271 C-163.84343737 428.39222737 -163.86899211 439.21253526 -163.89711623 450.03286229 C-163.94246567 467.59269653 -163.97912916 485.15253755 -164.01025391 502.71240234 C-164.04048818 519.75928943 -164.07486068 536.80615999 -164.11474609 553.85302734 C-164.11720764 554.90569476 -164.11966919 555.95836217 -164.12220533 557.04292859 C-164.13458088 562.32441856 -164.14703723 567.60590833 -164.15953374 572.887398 C-164.26292392 616.62803391 -164.35218543 660.36869037 -164.43212891 704.109375 C-165.04705151 704.10881117 -165.66197411 704.10824735 -166.29553074 704.10766643 C-207.62539747 704.06703725 -207.62539747 704.06703725 -248.95416451 704.32513618 C-253.03899641 704.36553582 -257.12384905 704.40213656 -261.20872498 704.43772888 C-272.76786273 704.53904934 -284.32694442 704.64585593 -295.88598633 704.75756836 C-302.39036445 704.82038959 -308.89476591 704.87945225 -315.39921516 704.93443054 C-318.79570092 704.96332111 -322.19214273 704.99417221 -325.58856392 705.02990913 C-329.3196782 705.06839707 -333.05079648 705.10048398 -336.78198242 705.13110352 C-337.88024857 705.14404953 -338.97851471 705.15699554 -340.11006165 705.17033386 C-341.12425171 705.17737335 -342.13844177 705.18441284 -343.18336487 705.19166565 C-344.05768945 705.19996179 -344.93201403 705.20825792 -345.83283329 705.21680546 C-348.76135682 705.09576781 -351.54682289 704.61096366 -354.43212891 704.109375 C-354.45506684 660.32917155 -354.47266342 616.54896873 -354.48319424 572.76876045 C-354.4844448 567.58859745 -354.48573913 562.40843446 -354.48706055 557.22827148 C-354.48732286 556.19708592 -354.48758517 555.16590035 -354.48785543 554.10346674 C-354.49219512 537.45288209 -354.50007324 520.80230092 -354.5092817 504.15171833 C-354.51866567 487.03982004 -354.52419452 469.92792357 -354.5262174 452.81602281 C-354.52758281 442.27506714 -354.53187981 431.73412133 -354.54004537 421.19316869 C-354.54537147 413.94410868 -354.54692001 406.6950537 -354.54563028 399.44599188 C-354.54499598 395.27691445 -354.54589969 391.10785414 -354.55133438 386.93877983 C-354.61139759 338.37032445 -354.61139759 338.37032445 -351.74462891 315.796875 C-351.61732895 314.77426071 -351.61732895 314.77426071 -351.48745728 313.73098755 C-343.33537976 248.90105301 -317.35471931 187.04947451 -276.43212891 136.109375 C-275.71025391 135.19542969 -274.98837891 134.28148437 -274.24462891 133.33984375 C-265.16261024 122.00353831 -255.08684479 111.66501256 -244.86962891 101.359375 C-244.00756836 100.4842627 -243.14550781 99.60915039 -242.25732422 98.70751953 C-236.29675843 92.73905447 -230.03281241 87.35474874 -223.43212891 82.109375 C-222.16598475 81.07253254 -220.90141985 80.03375545 -219.63916016 78.9921875 C-156.65416796 27.59534322 -80.38050471 3.61478279 0 0 Z " fill="#000000" transform="translate(3443.43212890625,714.890625)"/>
<path d="M0 0 C1.72685363 1.62013485 3.36345835 3.28669748 5 5 C3.5780575 6.92977911 2.15610828 8.85955326 0.73413086 10.78930664 C-0.52297849 12.49544257 -1.77997412 14.20166228 -3.03686523 15.90795898 C-6.2186014 20.22701676 -9.40176287 24.54499788 -12.58984375 28.859375 C-18.26619275 36.54480463 -23.91678907 44.2465765 -29.5 52 C-35.67673029 60.5776458 -41.93907756 69.09029102 -48.22070312 77.59130859 C-51.21283198 81.64184966 -54.20015914 85.69592712 -57.1875 89.75 C-57.76902832 90.53890625 -58.35055664 91.3278125 -58.94970703 92.140625 C-62.11775059 96.43979334 -65.27942084 100.74351112 -68.43310547 105.05322266 C-70.195574 107.46078586 -71.96120116 109.86601176 -73.72851562 112.27001953 C-74.59005911 113.44223481 -75.45070915 114.61510717 -76.31054688 115.78857422 C-77.5569888 117.48720278 -78.80889682 119.18165254 -80.0625 120.875 C-80.77535156 121.84179688 -81.48820312 122.80859375 -82.22265625 123.8046875 C-84 126 -84 126 -86 127 C-87.85888672 126.38598633 -87.85888672 126.38598633 -90.1796875 125.33203125 C-91.06994629 124.93935059 -91.96020508 124.54666992 -92.87744141 124.14208984 C-93.86663574 123.7033252 -94.85583008 123.26456055 -95.875 122.8125 C-140.32881652 103.74913846 -188.82568165 91.35899332 -237 87 C-237.969375 86.9064624 -238.93875 86.8129248 -239.9375 86.71655273 C-249.33425779 85.88816209 -258.69929445 85.7996466 -268.125 85.8125 C-268.94459198 85.81310425 -269.76418396 85.8137085 -270.60861206 85.81433105 C-282.50797106 85.83814807 -294.23763557 86.02979057 -306 88 C-306.80598633 88.12890625 -307.61197266 88.2578125 -308.44238281 88.390625 C-326.98352286 91.43964384 -346.83184438 96.62940701 -360 111 C-365.05100592 118.12024753 -367.96599784 125.8713634 -366.6640625 134.63671875 C-364.00140194 144.11265779 -357.28735536 150.62535019 -349.00390625 155.45703125 C-347.53111613 156.25649815 -346.05013121 157.04100053 -344.5625 157.8125 C-343.74322021 158.23845459 -342.92394043 158.66440918 -342.07983398 159.10327148 C-312.61520894 173.98297601 -279.33162775 181.89923072 -247.63964844 190.65170288 C-238.55221573 193.16261516 -229.47271077 195.70195824 -220.39453125 198.24609375 C-219.50152943 198.49634371 -218.6085276 198.74659367 -217.68846512 199.00442696 C-79.92677857 237.64668856 -79.92677857 237.64668856 -31 278 C-30.48066895 278.41926758 -29.96133789 278.83853516 -29.42626953 279.27050781 C6.47812645 308.25974109 30.25718532 346.85053426 36 393 C41.03257404 442.47276177 26.48142729 499.86802637 -5 539 C-8.79891357 543.52580645 -12.87896521 547.76922337 -17 552 C-17.97380615 553.01247803 -17.97380615 553.01247803 -18.96728516 554.04541016 C-28.08591655 563.50596351 -37.32512388 572.32122136 -48 580 C-48.62197266 580.45036621 -49.24394531 580.90073242 -49.88476562 581.36474609 C-94.36409068 613.33845187 -145.98846249 630.44197073 -200 637 C-200.74572266 637.0921579 -201.49144531 637.1843158 -202.25976562 637.27926636 C-216.65420842 639.00341599 -230.96597824 639.3417316 -245.45410156 639.31567383 C-249.09991638 639.31252169 -252.74491002 639.33605156 -256.390625 639.36132812 C-278.1015828 639.42054008 -299.47455864 637.40189068 -320.8125 633.375 C-321.47845184 633.25094788 -322.14440369 633.12689575 -322.83053589 632.99908447 C-399.03026442 618.74006873 -473.57184454 592.80803324 -538 549 C-538.62841797 548.57283691 -539.25683594 548.14567383 -539.90429688 547.70556641 C-548.37261569 541.9404694 -556.76194402 536.09127444 -565 530 C-564.49659767 525.32433087 -562.61922114 522.85971088 -559.6875 519.25 C-555.69667601 514.23904153 -551.91265666 509.13051333 -548.25 503.875 C-543.92144614 497.6823244 -539.50013897 491.56910801 -535 485.5 C-530.57480118 479.52734272 -526.2089385 473.52114973 -521.9375 467.4375 C-512.88648168 454.54647391 -503.62259764 441.81513037 -494.26171875 429.14770508 C-488.10871422 420.81263083 -482.0476611 412.41169151 -476 404 C-471.97456871 404.86705742 -469.30510179 406.63049301 -465.875 408.9375 C-413.97278097 442.9793499 -351.24494896 463.30580045 -290 472 C-289.11022461 472.12987305 -288.22044922 472.25974609 -287.30371094 472.39355469 C-247.09009673 478.0036603 -196.84442286 477.15111813 -162.8515625 452.39453125 C-155.25603081 446.01636559 -149.25643404 438.05147233 -148 428 C-147.26099412 418.39292357 -150.92262981 410.29023592 -157 403 C-168.13655832 391.39382778 -184.88277839 386.17036729 -199.7421875 381.23828125 C-200.38655888 381.02381788 -201.03093025 380.80935452 -201.69482803 380.58839226 C-215.93747534 375.86562549 -230.36498097 371.90691959 -244.8741684 368.0903511 C-248.31547603 367.18247958 -251.75358437 366.26265202 -255.19189453 365.34350586 C-259.98720697 364.06230664 -264.78306304 362.7832074 -269.58003044 361.50821781 C-297.20050812 354.16645313 -324.74902696 346.62470431 -352 338 C-352.68022217 337.78492798 -353.36044434 337.56985596 -354.0612793 337.3482666 C-396.05935728 324.0345064 -438.14775084 308.14414643 -474 282 C-475.04414062 281.24332031 -476.08828125 280.48664063 -477.1640625 279.70703125 C-493.71507177 267.47740796 -509.93404106 252.44654377 -521 235 C-521.40573242 234.37528809 -521.81146484 233.75057617 -522.22949219 233.10693359 C-548.9397466 191.84930159 -555.62700343 144.65740408 -545.74609375 96.7109375 C-534.69323595 46.34652895 -504.10290495 3.62912609 -462 -26 C-461.3930127 -26.43570313 -460.78602539 -26.87140625 -460.16064453 -27.3203125 C-419.18896533 -56.60344195 -369.45793561 -70.93440412 -320 -77 C-318.68177246 -77.17571533 -318.68177246 -77.17571533 -317.33691406 -77.35498047 C-223.55874375 -89.60036437 -115.53425971 -66.42134935 0 0 Z " fill="#000000" transform="translate(2209,795)"/>
</svg>
